<svg width="29" height="14" viewBox="0 0 29 14" fill="none" xmlns="http://www.w3.org/2000/svg">
<rect width="29" height="14" fill="#F5F5F5"/>
<g clip-path="url(#clip0_1_198)">
<path d="M22 2.902C21.4843 3.12989 20.9313 3.28466 20.3503 3.35389C20.943 2.99844 21.3987 2.43533 21.6126 1.76566C21.0588 2.09466 20.4436 2.33344 19.7895 2.46178C19.2653 1.90411 18.5178 1.55566 17.6926 1.55566C16.1067 1.55566 14.8203 2.84055 14.8203 4.42722C14.8203 4.652 14.8452 4.87133 14.895 5.08211C12.5072 4.96155 10.3908 3.81822 8.97451 2.08144C8.72718 2.50533 8.58562 2.99922 8.58562 3.52422C8.58562 4.52133 9.09273 5.40022 9.86351 5.91511C9.39295 5.90033 8.94962 5.77122 8.56229 5.55655C8.56229 5.56822 8.56229 5.57989 8.56229 5.59233C8.56229 6.98378 9.5524 8.14578 10.8661 8.40866C10.625 8.474 10.3714 8.509 10.1093 8.509C9.92495 8.509 9.74451 8.49266 9.56951 8.45844C9.93429 9.60022 10.996 10.4301 12.2521 10.4534C11.2697 11.2234 10.0315 11.6823 8.68595 11.6823C8.4534 11.6823 8.22551 11.6683 8.00073 11.6411C9.27162 12.457 10.7813 12.9314 12.4037 12.9314C17.6864 12.9314 20.5758 8.55489 20.5758 4.76011C20.5758 4.63489 20.5727 4.51044 20.5665 4.38755C21.1273 3.98466 21.615 3.47833 22 2.902Z" fill="black"/>
</g>
<defs>
<clipPath id="clip0_1_198">
<rect width="14" height="14" fill="white" transform="translate(8)"/>
</clipPath>
</defs>
</svg>
